<svg width="24" height="30" viewBox="0 0 24 30" fill="none" xmlns="http://www.w3.org/2000/svg">
<path d="M10.625 12C13.6626 12 16.125 9.53757 16.125 6.5C16.125 3.46243 13.6626 1 10.625 1C7.58743 1 5.125 3.46243 5.125 6.5C5.125 9.53757 7.58743 12 10.625 12Z" stroke="#EEEEEE" stroke-opacity="0.933333" stroke-width="1.5"/>
<path d="M15.4375 16.8606C14.0213 16.3931 12.3781 16.125 10.625 16.125C5.30925 16.125 1 18.5862 1 21.625C1 22.0994 1 22.56 1.03712 23M12 27.1071C11.5655 27.1195 11.1062 27.125 10.625 27.125C8.25725 27.125 6.4725 26.9765 5.125 26.7056M21.5563 21.6937L16.1937 27.0563" stroke="#EEEEEE" stroke-opacity="0.933333" stroke-width="1.5" stroke-linecap="round"/>
<path d="M18.875 28.5C21.1532 28.5 23 26.6532 23 24.375C23 22.0968 21.1532 20.25 18.875 20.25C16.5968 20.25 14.75 22.0968 14.75 24.375C14.75 26.6532 16.5968 28.5 18.875 28.5Z" stroke="#EEEEEE" stroke-opacity="0.933333" stroke-width="1.5"/>
</svg>
