<svg width="24" height="24" viewBox="0 0 24 24" fill="none" xmlns="http://www.w3.org/2000/svg">
<path d="M12 18C12.34 18 12.6252 17.8848 12.8556 17.6544C13.086 17.424 13.2008 17.1392 13.2 16.8C13.2 16.46 13.0848 16.1748 12.8544 15.9444C12.624 15.714 12.3392 15.5992 12 15.6C11.66 15.6 11.3748 15.7152 11.1444 15.9456C10.914 16.176 10.7992 16.4608 10.8 16.8C10.8 17.14 10.9152 17.4252 11.1456 17.6556C11.376 17.886 11.6608 18.0008 12 18ZM10.8 13.2H13.2V6H10.8V13.2ZM12 24C10.34 24 8.78 23.6848 7.32 23.0544C5.86 22.424 4.59 21.5692 3.51 20.49C2.43 19.41 1.5752 18.14 0.9456 16.68C0.316 15.22 0.0008 13.66 0 12C0 10.34 0.3152 8.78 0.9456 7.32C1.576 5.86 2.4308 4.59 3.51 3.51C4.59 2.43 5.86 1.5752 7.32 0.9456C8.78 0.316 10.34 0.0008 12 0C13.66 0 15.22 0.3152 16.68 0.9456C18.14 1.576 19.41 2.4308 20.49 3.51C21.57 4.59 22.4252 5.86 23.0556 7.32C23.686 8.78 24.0008 10.34 24 12C24 13.66 23.6848 15.22 23.0544 16.68C22.424 18.14 21.5692 19.41 20.49 20.49C19.41 21.57 18.14 22.4252 16.68 23.0556C15.22 23.686 13.66 24.0008 12 24ZM12 21.6C14.68 21.6 16.95 20.67 18.81 18.81C20.67 16.95 21.6 14.68 21.6 12C21.6 9.32 20.67 7.05 18.81 5.19C16.95 3.33 14.68 2.4 12 2.4C9.32 2.4 7.05 3.33 5.19 5.19C3.33 7.05 2.4 9.32 2.4 12C2.4 14.68 3.33 16.95 5.19 18.81C7.05 20.67 9.32 21.6 12 21.6Z" fill="#EEEEEE"/>
</svg>
