<svg width="8" height="8" viewBox="0 0 8 8" fill="none" xmlns="http://www.w3.org/2000/svg">
<path d="M6.4 6.4C5.956 6.4 5.6 6.756 5.6 7.2C5.6 7.41217 5.68429 7.61566 5.83431 7.76569C5.98434 7.91571 6.18783 8 6.4 8C6.61217 8 6.81566 7.91571 6.96569 7.76569C7.11571 7.61566 7.2 7.41217 7.2 7.2C7.2 6.98783 7.11571 6.78434 6.96569 6.63432C6.81566 6.48429 6.61217 6.4 6.4 6.4ZM0 0V0.8H0.8L2.24 3.836L1.696 4.816C1.636 4.928 1.6 5.06 1.6 5.2C1.6 5.41217 1.68429 5.61566 1.83431 5.76569C1.98434 5.91571 2.18783 6 2.4 6H7.2V5.2H2.568C2.54148 5.2 2.51604 5.18946 2.49729 5.17071C2.47854 5.15196 2.468 5.12652 2.468 5.1C2.468 5.08 2.472 5.064 2.48 5.052L2.84 4.4H5.82C6.12 4.4 6.384 4.232 6.52 3.988L7.952 1.4C7.98 1.336 8 1.268 8 1.2C8 1.09391 7.95786 0.992172 7.88284 0.917157C7.80783 0.842143 7.70609 0.8 7.6 0.8H1.684L1.308 0M2.4 6.4C1.956 6.4 1.6 6.756 1.6 7.2C1.6 7.41217 1.68429 7.61566 1.83431 7.76569C1.98434 7.91571 2.18783 8 2.4 8C2.61217 8 2.81566 7.91571 2.96569 7.76569C3.11571 7.61566 3.2 7.41217 3.2 7.2C3.2 6.98783 3.11571 6.78434 2.96569 6.63432C2.81566 6.48429 2.61217 6.4 2.4 6.4Z" fill="#F5F5F5"/>
</svg>
