<svg width="16" height="12" viewBox="0 0 16 12" fill="none" xmlns="http://www.w3.org/2000/svg">
<path d="M12.3636 10.5455C12.0743 10.5455 11.7968 10.4305 11.5922 10.2259C11.3877 10.0213 11.2727 9.74387 11.2727 9.45455C11.2727 9.16522 11.3877 8.88774 11.5922 8.68316C11.7968 8.47857 12.0743 8.36364 12.3636 8.36364C12.653 8.36364 12.9304 8.47857 13.135 8.68316C13.3396 8.88774 13.4545 9.16522 13.4545 9.45455C13.4545 9.74387 13.3396 10.0213 13.135 10.2259C12.9304 10.4305 12.653 10.5455 12.3636 10.5455ZM13.4545 4L14.88 5.81818H11.6364V4M3.63636 10.5455C3.34704 10.5455 3.06956 10.4305 2.86497 10.2259C2.66039 10.0213 2.54545 9.74387 2.54545 9.45455C2.54545 9.16522 2.66039 8.88774 2.86497 8.68316C3.06956 8.47857 3.34704 8.36364 3.63636 8.36364C3.92569 8.36364 4.20317 8.47857 4.40775 8.68316C4.61234 8.88774 4.72727 9.16522 4.72727 9.45455C4.72727 9.74387 4.61234 10.0213 4.40775 10.2259C4.20317 10.4305 3.92569 10.5455 3.63636 10.5455ZM13.8182 2.90909H11.6364V0H1.45455C0.647273 0 0 0.647273 0 1.45455V9.45455H1.45455C1.45455 10.0332 1.68441 10.5882 2.09359 10.9973C2.50276 11.4065 3.05771 11.6364 3.63636 11.6364C4.21502 11.6364 4.76997 11.4065 5.17914 10.9973C5.58831 10.5882 5.81818 10.0332 5.81818 9.45455H10.1818C10.1818 10.0332 10.4117 10.5882 10.8209 10.9973C11.23 11.4065 11.785 11.6364 12.3636 11.6364C12.9423 11.6364 13.4972 11.4065 13.9064 10.9973C14.3156 10.5882 14.5455 10.0332 14.5455 9.45455H16V5.81818L13.8182 2.90909Z" fill="#5C19CC"/>
</svg>
