<svg width="8" height="5" viewBox="0 0 8 5" fill="none" xmlns="http://www.w3.org/2000/svg">
<path fill-rule="evenodd" clip-rule="evenodd" d="M4.4322 4.4322C4.31952 4.54485 4.16671 4.60813 4.00738 4.60813C3.84805 4.60813 3.69525 4.54485 3.58257 4.4322L0.183439 1.03307C0.12605 0.977643 0.0802739 0.91134 0.0487829 0.838031C0.0172918 0.764722 0.000715982 0.685876 2.26867e-05 0.606093C-0.000670608 0.526309 0.0145326 0.447187 0.044745 0.373342C0.0749573 0.299497 0.119574 0.232408 0.175991 0.175991C0.232409 0.119574 0.299497 0.074957 0.373342 0.0447447C0.447187 0.0145323 0.526309 -0.000670608 0.606093 2.26871e-05C0.685876 0.000715982 0.764722 0.0172918 0.838031 0.0487829C0.911339 0.0802739 0.977643 0.126049 1.03307 0.183439L4.00738 3.15775L6.9817 0.183439C7.09502 0.0739852 7.2468 0.0134208 7.40435 0.0147898C7.5619 0.0161588 7.7126 0.0793517 7.82401 0.190758C7.93542 0.302165 7.99861 0.452871 7.99998 0.610417C8.00135 0.767964 7.94078 0.919745 7.83133 1.03307L4.4322 4.4322Z" fill="white"/>
</svg>
