<svg width="10" height="10" viewBox="0 0 10 10" fill="none" xmlns="http://www.w3.org/2000/svg">
<path d="M5.31059 1.19311L6.29136 3.17316C6.31367 3.22342 6.34876 3.26695 6.39313 3.29942C6.43751 3.33189 6.48962 3.35216 6.54427 3.35821L8.70937 3.67897C8.77206 3.68703 8.83116 3.71275 8.87978 3.75315C8.92839 3.79354 8.96451 3.84693 8.98391 3.90708C9.00332 3.96724 9.00521 4.03167 8.98936 4.09285C8.97351 4.15404 8.94059 4.20946 8.89442 4.25263L7.33382 5.80089C7.29399 5.8381 7.2641 5.88468 7.24686 5.9364C7.22962 5.98811 7.22559 6.04331 7.23513 6.09697L7.6114 8.27441C7.62229 8.33698 7.61541 8.40135 7.59152 8.4602C7.56764 8.51904 7.52772 8.57 7.4763 8.60728C7.42488 8.64456 7.36404 8.66666 7.30068 8.67106C7.23733 8.67546 7.17401 8.66199 7.11793 8.63218L5.16872 7.60206C5.11881 7.57756 5.06394 7.56482 5.00834 7.56482C4.95274 7.56482 4.89787 7.57756 4.84796 7.60206L2.89875 8.63218C2.84268 8.66199 2.77936 8.67546 2.716 8.67106C2.65264 8.66666 2.5918 8.64456 2.54038 8.60728C2.48896 8.57 2.44904 8.51904 2.42516 8.4602C2.40127 8.40135 2.39439 8.33698 2.40528 8.27441L2.78155 6.0723C2.79109 6.01863 2.78706 5.96343 2.76982 5.91172C2.75258 5.86001 2.72269 5.81343 2.68286 5.77622L1.10375 4.25263C1.05704 4.20827 1.02418 4.15133 1.00917 4.08868C0.994159 4.02604 0.997635 3.96038 1.01918 3.89967C1.04072 3.83896 1.0794 3.7858 1.13054 3.74663C1.18168 3.70746 1.24308 3.68395 1.30731 3.67897L3.47241 3.35821C3.52706 3.35216 3.57917 3.33189 3.62355 3.29942C3.66792 3.26695 3.70301 3.22342 3.72532 3.17316L4.70609 1.19311C4.7328 1.13544 4.77545 1.08662 4.829 1.0524C4.88256 1.01818 4.94479 1 5.00834 1C5.07189 1 5.13412 1.01818 5.18768 1.0524C5.24123 1.08662 5.28388 1.13544 5.31059 1.19311Z" fill="#00FF29" stroke="#00FF29" stroke-linecap="round" stroke-linejoin="round"/>
</svg>
