<svg width="25" height="9" viewBox="0 0 25 9" fill="none" xmlns="http://www.w3.org/2000/svg">
<path d="M12.9294 2.58081C12.9151 3.70542 13.9316 4.33296 14.6974 4.7061C15.4841 5.08892 15.7483 5.33442 15.7452 5.67681C15.7394 6.20073 15.1177 6.43198 14.5359 6.44097C13.521 6.45669 12.9309 6.16694 12.4617 5.9478L12.0961 7.65864C12.5668 7.87554 13.4384 8.0647 14.3422 8.073C16.4638 8.073 17.8518 7.02573 17.8593 5.402C17.8676 3.34126 15.0089 3.2272 15.0284 2.3061C15.0352 2.02681 15.3017 1.72876 15.8856 1.65298C16.1747 1.6147 16.9727 1.5854 17.8773 2.002L18.2324 0.346729C17.7459 0.16958 17.1206 -4.86374e-05 16.3421 -4.86374e-05C14.3452 -4.86374e-05 12.9407 1.06147 12.9294 2.58081ZM21.6443 0.142529C21.2569 0.142529 20.9305 0.368505 20.7848 0.715283L17.7542 7.95142H19.8742L20.2961 6.7855H22.8867L23.1314 7.95142H25L23.3694 0.142529H21.6443ZM21.9409 2.252L22.5527 5.18433H20.8771L21.9409 2.252ZM10.359 0.142627L8.68789 7.95132H10.7081L12.3784 0.142432H10.359M7.37041 0.142432L5.26768 5.45757L4.41709 0.93833C4.31729 0.433838 3.92314 0.142529 3.48545 0.142529H0.0481445L0 0.369287C0.705664 0.522412 1.50742 0.769385 1.99316 1.03364C2.29043 1.19507 2.3752 1.33618 2.47285 1.71978L4.08389 7.95142H6.21875L9.4918 0.142529L7.37041 0.142432Z" fill="url(#paint0_linear_19_301)"/>
<defs>
<linearGradient id="paint0_linear_19_301" x1="1149.35" y1="24.2675" x2="1172.72" y2="-804.846" gradientUnits="userSpaceOnUse">
<stop stop-color="#222357"/>
<stop offset="1" stop-color="#254AA5"/>
</linearGradient>
</defs>
</svg>
