<svg width="8" height="8" viewBox="0 0 8 8" fill="none" xmlns="http://www.w3.org/2000/svg">
<path d="M4.23587 1.14483L4.97145 2.62987C4.98818 2.66756 5.0145 2.70021 5.04778 2.72456C5.08106 2.74892 5.12014 2.76412 5.16113 2.76866L6.78496 3.00923C6.83197 3.01527 6.8763 3.03457 6.91276 3.06486C6.94922 3.09515 6.97631 3.1352 6.99087 3.18031C7.00542 3.22543 7.00684 3.27375 6.99495 3.31964C6.98307 3.36553 6.95837 3.40709 6.92375 3.43947L5.7533 4.60067C5.72342 4.62858 5.701 4.66351 5.68808 4.7023C5.67515 4.74108 5.67212 4.78248 5.67928 4.82273L5.96148 6.45581C5.96965 6.50274 5.96448 6.55101 5.94657 6.59515C5.92866 6.63928 5.89872 6.6775 5.86016 6.70546C5.82159 6.73342 5.77596 6.74999 5.72844 6.75329C5.68092 6.75659 5.63343 6.74649 5.59138 6.72413L4.12947 5.95155C4.09203 5.93317 4.05089 5.92361 4.00919 5.92361C3.96748 5.92361 3.92634 5.93317 3.8889 5.95155L2.42699 6.72413C2.38494 6.74649 2.33745 6.75659 2.28993 6.75329C2.24241 6.74999 2.19678 6.73342 2.15821 6.70546C2.11965 6.6775 2.08971 6.63928 2.0718 6.59515C2.05389 6.55101 2.04872 6.50274 2.05689 6.45581L2.3391 4.80423C2.34625 4.76398 2.34322 4.72258 2.33029 4.68379C2.31737 4.64501 2.29495 4.61007 2.26507 4.58216L1.08074 3.43947C1.04571 3.40621 1.02107 3.3635 1.00981 3.31651C0.998549 3.26953 1.00116 3.22029 1.01731 3.17475C1.03347 3.12922 1.06248 3.08935 1.10084 3.05997C1.13919 3.03059 1.18524 3.01297 1.23341 3.00923L2.85724 2.76866C2.89823 2.76412 2.93731 2.74892 2.97059 2.72456C3.00387 2.70021 3.03019 2.66756 3.04692 2.62987L3.7825 1.14483C3.80253 1.10158 3.83452 1.06496 3.87468 1.0393C3.91485 1.01364 3.96152 1 4.00919 1C4.05685 1 4.10352 1.01364 4.14369 1.0393C4.18385 1.06496 4.21584 1.10158 4.23587 1.14483Z" fill="#FFF500" stroke="#FFF500" stroke-linecap="round" stroke-linejoin="round"/>
</svg>
